<svg width="21" height="21" viewBox="0 0 21 21" fill="none" xmlns="http://www.w3.org/2000/svg">
<path d="M10.5 0C4.70144 0 0 4.70143 0 10.5C0 16.2985 4.70144 21 10.5 21C16.2986 21 21 16.2984 21 10.5C21 4.70143 16.2986 0 10.5 0ZM16.0448 15.3207L15.204 16.1616C15.0539 16.3114 14.6144 16.405 14.6003 16.405C11.9407 16.4282 9.37982 15.3835 7.49826 13.5017C5.61154 11.6139 4.56563 9.04397 4.59372 6.37537C4.59372 6.37416 4.68998 5.94724 4.83994 5.7987L5.68062 4.9579C5.98825 4.64884 6.5792 4.50918 6.99318 4.64767L7.17002 4.70666C7.58278 4.84503 8.01615 5.30142 8.13019 5.72188L8.55308 7.27399C8.66712 7.69567 8.51331 8.29557 8.20576 8.60321L7.64441 9.16464C8.19554 11.2049 9.79644 12.8061 11.8371 13.3586L12.3982 12.797C12.7073 12.488 13.307 12.3343 13.7278 12.4482L15.2797 12.8726C15.7002 12.9881 16.1565 13.4188 16.2948 13.8314L16.3538 14.0108C16.4909 14.4236 16.3524 15.0144 16.0448 15.3207Z" fill="#BDBDBD"/>
</svg>
