<svg width="18" height="21" viewBox="0 0 18 21" fill="none" xmlns="http://www.w3.org/2000/svg">
<path d="M16.9576 9.70025C16.6865 9.42916 16.3575 9.29372 15.97 9.29372H15.5056V6.50547C15.5056 4.72422 14.8669 3.19478 13.5889 1.9169C12.3111 0.638966 10.7818 0 9.00032 0C7.21886 0 5.68927 0.638966 4.41154 1.91685C3.13361 3.19478 2.49484 4.72417 2.49484 6.50547V9.29372H2.03023C1.64313 9.29372 1.3139 9.42916 1.04281 9.70025C0.771724 9.97114 0.63623 10.3004 0.63623 10.6878V19.052C0.63623 19.4391 0.771775 19.7684 1.04281 20.0396C1.3139 20.3104 1.64313 20.446 2.03023 20.446H15.9704C16.3578 20.446 16.6868 20.3106 16.958 20.0396C17.2288 19.7684 17.3646 19.4391 17.3646 19.052V10.6877C17.3648 10.3005 17.2288 9.97134 16.9576 9.70025ZM12.7177 9.29372H5.28294V6.50547C5.28294 5.47935 5.64604 4.60317 6.37208 3.87723C7.09822 3.15119 7.97425 2.78825 9.00047 2.78825C10.0268 2.78825 10.9026 3.15114 11.6288 3.87723C12.3546 4.60312 12.7177 5.47935 12.7177 6.50547V9.29372Z" fill="#BDBDBD"/>
</svg>
